<?xml version="1.0" encoding="utf-8"?>
<!-- Generator: Adobe Illustrator 23.0.4, SVG Export Plug-In . SVG Version: 6.00 Build 0)  -->
<svg version="1.1" id="Layer_1" xmlns="http://www.w3.org/2000/svg" xmlns:xlink="http://www.w3.org/1999/xlink" x="0px" y="0px"
	 viewBox="0 0 159.8 176.3" style="enable-background:new 0 0 159.8 176.3;" xml:space="preserve">
<style type="text/css">
	.st0{fill:#FFFFFF;}
</style>
<g>
	<path class="st0" d="M40.3,155.1c-2.7,1.4-5.6,2.4-8.5,3.1c-3,0.6-6,0.9-9.1,0.9c-3.3,0-6.3-0.5-9.1-1.5c-2.8-1-5.2-2.5-7.2-4.4
		c-2-1.9-3.6-4.2-4.7-6.9c-1.1-2.7-1.7-5.8-1.7-9.1c0-3.4,0.6-6.4,1.7-9.1c1.1-2.7,2.7-5,4.7-7c2-1.9,4.4-3.4,7.2-4.4
		c2.8-1,5.8-1.5,9.1-1.5c3.4,0,6.5,0.4,9.3,1.2c2.8,0.8,5.3,2.2,7.4,4.2l-6.5,7.1c-1.3-1.3-2.7-2.3-4.3-3c-1.6-0.7-3.6-1-5.9-1
		c-2,0-3.8,0.3-5.4,1c-1.6,0.7-3,1.6-4.1,2.8c-1.1,1.2-2,2.6-2.6,4.3c-0.6,1.7-0.9,3.5-0.9,5.4c0,2,0.3,3.8,0.9,5.4
		c0.6,1.6,1.5,3.1,2.6,4.3c1.1,1.2,2.5,2.1,4.1,2.8c1.6,0.7,3.4,1,5.4,1c2,0,3.8-0.2,5.2-0.7c1.5-0.5,2.6-0.9,3.5-1.4v-6.8h-7.5
		v-8.5h16.4V155.1z"/>
	<polygon class="st0" points="62.2,140.1 46.4,116.1 57.9,116.1 66.8,131.8 76.3,116.1 87.2,116.1 71.5,140.1 71.5,158 62.2,158 	
		"/>
	<polygon class="st0" points="94.2,116.1 103.4,116.1 103.4,149.5 120.6,149.5 120.6,158 94.2,158 	"/>
	<polygon class="st0" points="129.5,116.1 158.1,116.1 158.1,124.7 138.8,124.7 138.8,132.5 157,132.5 157,141 138.8,141 
		138.8,149.5 159.1,149.5 159.1,158 129.5,158 	"/>
	<polygon class="st0" points="47.6,102.2 45.2,102.2 45.2,100.5 51.8,100.5 51.8,102.2 49.4,102.2 49.4,109.1 47.6,109.1 	"/>
	<polygon class="st0" points="62.4,100.5 64.3,100.5 64.3,103.7 67.8,103.7 67.8,100.5 69.7,100.5 69.7,109.1 67.8,109.1 
		67.8,105.4 64.3,105.4 64.3,109.1 62.4,109.1 	"/>
	<polygon class="st0" points="81.1,100.5 86.8,100.5 86.8,102.2 83,102.2 83,103.8 86.6,103.8 86.6,105.6 83,105.6 83,107.3 
		87,107.3 87,109.1 81.1,109.1 	"/>
	<polygon class="st0" points="30.1,167.5 31.9,167.5 31.9,174.3 35.3,174.3 35.3,176 30.1,176 	"/>
	<path class="st0" d="M45.2,171.8c0-0.7,0.1-1.3,0.3-1.9c0.2-0.6,0.5-1,0.9-1.4c0.4-0.4,0.9-0.7,1.4-0.9c0.5-0.2,1.2-0.3,1.8-0.3
		c0.7,0,1.3,0.1,1.8,0.3c0.5,0.2,1,0.5,1.4,0.9c0.4,0.4,0.7,0.9,0.9,1.4c0.2,0.6,0.3,1.2,0.3,1.9c0,0.7-0.1,1.3-0.3,1.9
		c-0.2,0.6-0.5,1-0.9,1.4c-0.4,0.4-0.9,0.7-1.4,0.9c-0.6,0.2-1.2,0.3-1.8,0.3c-0.7,0-1.3-0.1-1.8-0.3c-0.5-0.2-1-0.5-1.4-0.9
		c-0.4-0.4-0.7-0.9-0.9-1.4C45.3,173.1,45.2,172.4,45.2,171.8 M47.1,171.8c0,0.4,0.1,0.8,0.2,1.1c0.1,0.3,0.3,0.6,0.5,0.9
		c0.2,0.2,0.5,0.4,0.8,0.6c0.3,0.1,0.7,0.2,1.1,0.2c0.4,0,0.7-0.1,1.1-0.2c0.3-0.1,0.6-0.3,0.8-0.6c0.2-0.2,0.4-0.5,0.5-0.9
		c0.1-0.3,0.2-0.7,0.2-1.1c0-0.4-0.1-0.8-0.2-1.1c-0.1-0.3-0.3-0.6-0.5-0.9c-0.2-0.2-0.5-0.4-0.8-0.6c-0.3-0.1-0.7-0.2-1.1-0.2
		c-0.4,0-0.7,0.1-1.1,0.2c-0.3,0.1-0.6,0.3-0.8,0.6c-0.2,0.2-0.4,0.5-0.5,0.9C47.2,171,47.1,171.4,47.1,171.8"/>
	<polygon class="st0" points="64.8,167.5 67.3,167.5 70.9,173.4 70.9,173.4 70.9,167.5 72.7,167.5 72.7,176 70.3,176 66.7,169.9 
		66.6,169.9 66.6,176 64.8,176 	"/>
	<path class="st0" d="M83.7,167.5h2.8c0.7,0,1.3,0.1,1.9,0.2c0.6,0.2,1.1,0.4,1.6,0.7c0.4,0.3,0.8,0.8,1.1,1.3
		c0.3,0.5,0.4,1.2,0.4,2c0,0.7-0.1,1.3-0.4,1.8c-0.3,0.5-0.6,1-1,1.3c-0.4,0.4-0.9,0.6-1.5,0.8c-0.6,0.2-1.2,0.3-1.8,0.3h-3V167.5z
		 M85.6,174.3h1c0.4,0,0.8,0,1.2-0.1c0.4-0.1,0.7-0.2,0.9-0.4c0.3-0.2,0.5-0.5,0.6-0.8c0.2-0.3,0.2-0.7,0.2-1.2
		c0-0.4-0.1-0.8-0.2-1.1c-0.2-0.3-0.4-0.6-0.6-0.8c-0.3-0.2-0.6-0.4-0.9-0.5c-0.3-0.1-0.7-0.2-1.1-0.2h-1.1V174.3z"/>
	<path class="st0" d="M101.6,171.8c0-0.7,0.1-1.3,0.3-1.9c0.2-0.6,0.5-1,0.9-1.4c0.4-0.4,0.9-0.7,1.4-0.9c0.5-0.2,1.2-0.3,1.8-0.3
		c0.7,0,1.3,0.1,1.8,0.3c0.5,0.2,1,0.5,1.4,0.9c0.4,0.4,0.7,0.9,0.9,1.4c0.2,0.6,0.3,1.2,0.3,1.9c0,0.7-0.1,1.3-0.3,1.9
		c-0.2,0.6-0.5,1-0.9,1.4c-0.4,0.4-0.9,0.7-1.4,0.9c-0.5,0.2-1.2,0.3-1.8,0.3c-0.7,0-1.3-0.1-1.8-0.3c-0.5-0.2-1-0.5-1.4-0.9
		c-0.4-0.4-0.7-0.9-0.9-1.4C101.7,173.1,101.6,172.4,101.6,171.8 M103.5,171.8c0,0.4,0.1,0.8,0.2,1.1c0.1,0.3,0.3,0.6,0.5,0.9
		c0.2,0.2,0.5,0.4,0.8,0.6c0.3,0.1,0.7,0.2,1.1,0.2c0.4,0,0.7-0.1,1.1-0.2c0.3-0.1,0.6-0.3,0.8-0.6c0.2-0.2,0.4-0.5,0.5-0.9
		c0.1-0.3,0.2-0.7,0.2-1.1c0-0.4-0.1-0.8-0.2-1.1c-0.1-0.3-0.3-0.6-0.5-0.9c-0.2-0.2-0.5-0.4-0.8-0.6c-0.3-0.1-0.7-0.2-1.1-0.2
		c-0.4,0-0.7,0.1-1.1,0.2c-0.3,0.1-0.6,0.3-0.8,0.6c-0.2,0.2-0.4,0.5-0.5,0.9C103.5,171,103.5,171.4,103.5,171.8"/>
	<polygon class="st0" points="121.1,167.5 123.6,167.5 127.2,173.4 127.2,173.4 127.2,167.5 129,167.5 129,176 126.6,176 123,169.9 
		123,169.9 123,176 121.1,176 	"/>
	<path class="st0" d="M159.8,12.9c0-1.5-0.4-2.1-1.8-2.5c-0.1,0-0.2-0.1-0.4-0.1c-0.4-0.1-0.2,0-1.7-0.2c-1.7-0.3-7.6-0.6-9.1-0.4
		s-3.3,0.7-5.6,0.4c-2.3-0.4-4.3-1.6-4.3-1.6c-0.1,0-0.2-0.1-0.3-0.1c-0.8-0.4-1.6-0.8-2.4-1.2c-0.5-0.3-0.5-0.4,0-0.7
		c0.2-0.1,0.3-0.3,0.4-0.5c-0.2-0.1-0.3-0.3-0.5-0.3c-0.2-0.1-0.5-0.1-0.8-0.1c0.3-0.4,0.8-0.5,1.2-0.6c1.2-0.2,2.3,0.2,3.3,0.7
		c0.7,0.3,0.2,0.1,1,0.5c0.2,0.1,0.3,0.1,0.5,0.2c0.4,0.1,0.3-0.9,0.1-1.1c-0.2-0.2-0.4-0.3-0.7-0.5c-1.4-0.9-1.1-0.8-2.7-1.2
		c-0.2,0-0.3-0.1-0.5-0.2c-0.3-0.1-0.5-0.2-0.4-0.5c0.4-0.8,1.5-1.3,1.4-1.5c-0.3-0.3-1.7,0.4-2,0.6c-0.6,0.3-1.5,0.9-2,1.3
		c-0.6,0.4,0.8-1.3,1-1.9c-1.2-1.2-2.6,3-2.8,1.8c-0.1-0.6-0.3-1.2-0.6-1.7c-0.2-0.2-0.4-0.4-0.7-0.6c-0.1,0.3-0.4,0.5-0.3,0.8
		c0.1,0.6,0,1.2-0.2,1.7c-0.3,0.8-1.1,1.2-2,1.3c-2.1,0.4-4.2,0.4-6.3,0.3c-2.2-0.1-4.3,0.2-6.3,1.2c-0.2,0.1-0.3,0.2-0.5,0.2
		c-0.7,0.3-0.8,0.2-1.4-0.3c-0.8-0.8-1.7-1.7-2.7-2.3c-1.2-0.8-2.3-1.7-3.4-2.6c-0.6-0.5-1.1-1.1-2-1c-0.6,0-0.9,0.3-0.7,0.9
		c0.2,0.6,0.4,1.2,0.7,1.7c0.3,0.7,0.8,1.3,1.1,2c0.4,1,2.4,3.6,0.9,4.5c-1-0.6-1.9-1.2-2.3-1.3c-1.7-0.3-3.4-0.7-5.1-1.1
		c-0.7-0.2-1.3-0.5-1.9-0.7c-0.3-0.1-0.5-0.2-0.8-0.2c-1.2-0.3-1.7,0.3-1.7,1.5c0.1,1,0.5,1.9,1.1,2.7c1.5,2,2.7,4.2,3.7,6.5
		c0.7,1.7,1.8,3,3.3,4c0.4,0.2,0.4,0.5,0.2,0.9c-1,1.5-1.6,3.2-2,5c-0.1,0.6-0.2,1.1-0.3,1.7c-0.1,0.9-0.5,1.7-0.9,2.4
		c-0.7,1.2-1.3,2.3-1.9,3.6c-0.7,1.6-1.9,2.7-3.6,3.2c-1.5,0.5-3,1.2-4.6,1.8c-1.6,0.4-2.7,1.8-3.4,2.2c-0.8,0.3-5.7,2.3-15.4,2.3
		c-9.6,0.1-19-4.3-19-4.3l0,0c-2-0.6-3.4-1.9-4.5-3.8c-0.8-1.4-1.7-2.7-2.6-4c-0.8-1.2-1.3-2.6-1.8-3.9c-0.7-1.9-1.9-3.5-3.2-5
		c-0.4-0.5-0.8-1-1.1-1.5c-0.9-1.1-1.6-2.3-2.6-3.3c-1-1.1-2-2.1-3.1-3l-0.1,0c0,0-1.7-1.1-4.2-1.1c-2.5,0-1.2,2.7-1.2,2.7
		s0.6,1.5,1.2,2.5c0,0,0,0.1,0,0.1c1.2,1.5,2.4,3,3.5,4.6c1.3,1.7,1.9,3.7,2.3,5.7c0.7,3.2,1.9,6.2,3.2,9.1c0.5,1,1.2,2,1.8,2.9
		c0.1,0.2,0.3,0.4,0.4,0.7c0.2,0.5,0.2,1-0.1,1.4c-0.8,1-1.6,2-2.6,2.9C35,48.3,32.5,50.5,30,52c-4.4,2.6-2.9,1.8-2.2,3.3
		c0,0.1-3.8,3.1-3.9,3.1c-0.4,1.5,0.8,1.7,0,2.9c-0.8,1.2-1.8,1.8-2.6,3c-0.3,0.5-1.6,1.5-1.4,2.1c0.2,0.4,1.1,0.3,0.4,1.7
		c-0.7,1.4-1.4,1.5-2,2.9c-0.4,0.8-1.8,1.8-1.8,2.7c0,0.1-0.3,1-0.3,1.1c0.4,0.5,1.4-0.8,1,0.6c-0.3,1.2-1,1.9-1.5,3
		c-0.5,1.2-1.6,2.3-2.6,4c-0.5,0.8,1.1,0.1,1.6,1l-1,4.8c0.1,0.1-0.1,2.5-0.1,2.5c0.1,0.5,1.4-2.3,1.4-0.3c0,0.7-0.1,1.2,0.1,1.9
		c0.1,0.4-0.1,1.8-0.2,2.2c-0.3,1.4,1.4-0.5,1.6-0.4c0.3,0.2,0.3,0.4,0.1,0.7c-0.5,0.8-1.1,1.5-1.6,2.3c-0.1,0.2-0.1,0.5-0.2,0.7
		c0.2,0.1,0.4,0.2,0.7,0.2c1.1,0,1.1,0,0.8,1.1c-0.3,1-0.7,2-0.9,3.1c-0.1,1,0,2.1,0,3.1c0,0.3,0.2,0.6,0.4,0.8
		c0.8,0.7,1.3,1.4,1.8,2.3c0.4,0.7,0.7,1,1.4,0.7c1.3-0.6,2.3-0.1,3.2,0.8c1,1.1,2.4,1.4,3.8,1.5c1.3,0.1,2.6,0.2,3.9,0.3
		c0.9,0.1,1.6-0.2,2.3-0.7c0.5-0.4,0.9-0.8,1.3-1.2c0.3-0.3,0.6-0.6,0.9-0.8c0.6-0.5,0.9-1,0.9-1.8c0-0.7-0.6-1-1-1.4
		c-0.3-0.3-0.5-0.6-0.4-1.1c0.2-0.6-0.1-1.1-0.7-1.4c-0.5-0.2-1-0.4-1.5-0.6c-0.2-0.1-0.3-0.1-0.5-0.1c-0.9-0.4-0.9-0.5-0.3-1.2
		c0.4-0.5,0.3-0.8-0.3-1c-1.1-0.5-1.1-0.5-0.6-1.6c0.3-0.7,0.7-1.1,1.5-1.4c0.1,0,0.2-0.1,0.4-0.1c0.4-0.6,1.2-1,1.9-0.7
		c0.5,0.2,0.8,0.9,1.4,0.7c0.1-0.1,0.1-0.3,0.2-0.4c0.4-0.8,0.7-1.1,1.1-1.9c0.5-0.9,1.7-0.9,1.7,0c0.2,0,0.4,0.1,0.5,0.3
		c0.1,0.1,0.2,0.2,0.3,0.2c0.4-1.4,0.8-2.1,1.7-3.3c0.7-1,1.1-1,1.6,0.2c0.3,0.5,0.5,0.1,0.9,0c0.1-0.2,0.3-0.4,0.4-0.6
		c0.7-1,1.1-2.2,2.1-2.9c0.5-0.4,1.1-0.2,1.4,0.2c0.3-0.4,0.6-0.7,0.9-1.1c0-0.2,0-0.3,0-0.2c0.2-0.2,0.4-0.5,0.7-0.7
		c0.9-0.9,1.7-2,2.8-2.6c0.8-0.5,1.7-0.8,2.7-0.5c0.7,0.2,1.2,0.6,1.7,1.2c0.4,0.2,0.7,0.5,0.9,0.8c0.2,0,0.4,0.1,0.5,0.3
		c0.8,0.9,1.2,2,2.1,2.9c0.8,0.8,1.7,1.3,2.8,1.5c0.8-0.5,1.9-0.7,2.7-0.2c0.3,0,0.7,0.1,0.9,0.5c0.2,0.3,0.8,1.8,1.1,1.9
		c0.5,0.2,0-0.4,0.8-0.5c0.8-0.2,1.3-0.5,2.1-0.1c1.2,0.6,1.2,2.6,2.7,2.6c0.3,0,1.8-0.8,2.3-0.8c0.4,0,0.6,0.2,0.9,0.5
		c2.1,2,1.8,0.3,2.7,0.3c0.8,0,1.6-0.6,2.9,0.7c1.5-0.7,2.6-0.8,4.1,0.9c0.1,0,0.2,0.1,0.3,0.2c0.9-0.7,2.5-0.6,3.4-0.2
		c0.5,0.2,1,0.5,1.5,0.9c0,0,0,0.5,0.9,0.6c0.1,0,0.5,0,0.5,0c1.2-0.4,1.9-0.3,2.8,0.5c0.5,0.4,0.9,1.1,1.4,1.5c0-0.1,0-0.2,0.1-0.3
		c0.6-1,1.7-1.1,2.8-0.8c0.5,0.1,0.9,0.4,1.3,0.7c0.2,0.1,0.3,0.2,0.5,0.3c0.4-0.5,0.9-0.8,1.6-0.8c0.7,0,1.4,0.3,2.1,0.3
		c1.1,0.1,2,0,3,0.4c0.1,0,0.2,0.1,0.2,0.1c0.2-0.3,0.4-0.4,0.7-0.4c0,0,0.1,0,0.1-0.1c0,0,0,0,0,0.1c0.5,0.1,1.1,0.6,0.9,1.2
		c-0.2,0.7-0.4,1.4-0.9,1.9c0,0,0,0,0,0c0,0,0,0,0,0c-0.3,0.3-0.2,0.6,0,0.9c0-0.1,0.1-0.1,0.2-0.2c0.3-0.2,0.6-0.4,0.9-0.6
		c0.4-0.3,1.1,0,1.3,0.4c0.1,0.3,0.1,0.6,0,0.9c0.1,0.1,0.2,0.2,0.2,0.2c0.1-0.1,0.3-0.2,0.4-0.3c0,0-0.1,0-0.1,0
		c1.1-0.6,1.9,1.1,0.9,1.7c-0.1,0-0.1,0-0.2,0.1c0,0,0,0,0,0.1c0,0.1,0,0.2,0,0.3c0.1,0.2,0.2,0.3,0.4,0.4c0.2,0.1,0.5,0.1,0.8,0.1
		c0.2-0.1,0.4-0.2,0.5-0.3c0.8-0.5,1.7-0.5,2.7-0.5c-0.2,0.4-0.4,0.6-0.5,0.9c-0.4,0.7-0.3,1,0.5,1.2c0.3,0.1,0.5,0.3,0.5,0.6
		c0.1,0.9,0.1,0.4,0.1,1.4c0,0.6,0.8,1.3,1.3,1.1c0.4-0.2,0.5,0,0.9-0.2c1.1-0.7,1.7-0.5,2.9,0.2c0.5,0.3,1.1,0.6,1.6,0.9
		c0.3,0.1,0.6,0.2,0.9,0.3c0.5,0.1,0.8,0,1-0.5c0.1-0.3,0.4-0.5,0.7-0.4c0.9,0.3,1.7,0.6,2.6,0.9c0.4,0.2,0.8,0.5,1.2,0.7h0.5
		c0-0.4,0.1-0.8,0.1-1.1c0-0.5,0.1-0.7,0.6-0.7c0.3,0,0.6,0,0.8,0c0.6,0,1-0.3,1.5-0.7c0.3-0.4,0.8-0.6,1.3-0.8
		c0.7-0.4,0.8-0.7,0.5-1.5c-0.3-0.6-0.5-1.3-0.7-1.9c-0.2-0.8-0.7-1.4-1.4-1.6c-0.5-0.2-1-0.3-1.6-0.4c-0.3-0.1-0.5-0.2-0.6-0.5
		c-0.1-0.4-0.4-0.5-0.7-0.4c-0.5,0.1-1,0.2-1.5,0.3c-0.2,0-0.4,0.1-0.5,0c-0.3-0.1-0.5-0.2-0.4-0.6c0.1-0.3,0.3-0.5,0.4-0.8
		c0.3-0.7,0.2-1-0.5-1.3c-0.3-0.1-0.7-0.3-1-0.4c-0.1-0.1-0.3-0.2-0.6-0.3c0.4-0.1,0.7-0.2,1-0.2c0.2-0.1,0.4-0.1,0.6-0.2
		c0.3-0.2,0.3-0.5,0-0.6c-0.2-0.1-0.5-0.3-0.8-0.4c-0.1,0-0.1-0.1-0.2-0.1c-0.9-0.2-1.7-0.8-1.9-1.7c-0.5-2.3,1.8-4.8,3.9-5.3
		c0.1,0,0.1,0,0.2,0c0.2-0.2,0.3-0.3,0.5-0.3c0.1-0.4,0.2-0.7,0.3-1c0.3-0.7,0.8-1,1.4-1.3c0.3-0.1,0.6-0.3,0.9-0.4
		c0.1-0.2,0.2-0.4,0.2-0.5c0,0,0,0,0,0c-0.1-0.6-0.1-1.2,0.1-1.7c0.4-1,1.4-1.1,2.1-1.9c0.1-0.2,0.7-0.2,0.7-0.6
		c-0.4-0.5-0.8-0.7-0.9-1.3c-0.1-0.6,0.3-0.9,0.7-1.1c0-0.4,2.8-1.9,1.2-2.9c0,0,0,0,0,0c-0.1-0.2-0.2-0.5-0.2-0.9
		c0-0.2,0.1-0.3,0.1-0.4c-0.1-0.5,2.2-2.1,2-2.5c-0.4-0.9-1.5-0.1-1.9-1c0-0.1-0.2-1-0.2-1c0-0.1-0.1-0.2-0.1-0.3c0-0.3,0.1-0.7,0-1
		c0,0,0-0.1,0-0.1c-0.1,0-0.2-0.1-0.4-0.2c-0.3-0.2-0.6-0.6-0.8-1.1c-0.1-0.4-0.1-0.8-0.4-1c-0.6-0.5,0.4-3-0.2-3.6
		c-1.7-1.4-0.9-2-1.4-4.1c-0.6-2.4-1.6-2.9-1.7-5.2c-0.1-2.2-0.4-3.4-0.4-5.6c-0.1-2.2-0.2-5.2-0.2-7.4c0-1.8,0-4.3,1.1-6.8
		c0.2-0.6,0.7-1.1,1.1-1.5c0.2-0.2,0.3,0,0.4,0.2c0.1,0.3,0.1,0.7,0.1,1c0,0.5,0.3,0.6,0.7,0.6c0.2,0,0.4,0,0.6,0c0.5,0,1,0,1.3,0.5
		c0.1,0.2,0.5,0.3,0.8,0.4c0.4,0.1,0.5,0.3,0.4,0.6c-0.2,0.8-0.5,1.6-0.7,2.4c-0.3,1.6-0.4,3.1-0.1,4.7c0,0.1,0.1,0.4,0.2,0.4
		c0.2,0,0.3-0.1,0.5-0.2c0.1-0.1,0.2-0.2,0.2-0.3c0.5-1,1.4-1.7,2.2-2.5c0,0,0.1,0,0.2-0.1c0.1,0.2,0.1,0.4,0.1,0.6
		c0.1,0.6,0.4,0.7,0.9,0.4c0.3-0.2,0.5-0.6,0.8-0.8c0.4-0.4,0.5-0.3,0.8,0.1c0.3,0.6,0.5,0.6,1,0.2c0.5-0.4,0.9-0.9,1.4-1.3
		c0.2-0.2,0.4-0.3,0.6-0.4c0.3-0.2,0.6-0.1,0.9,0.2c0.2,0.2,0.2,0.2,0.4,0.4c0.3,0.3,0.6-0.2,0.8-0.5c0.4-0.6,1.1-0.1,1.8-0.1
		c1,0,1.2-0.4,1.4-1.4c0.1-0.6,0.5-1,1-1.2c1.6-0.6,1.1-1.6,1.1-3c-0.2-3.5,1.9-5.7,3.6-8.1c1.2-1.7,1.9-3.7,2.2-5.7
		c0.1-0.8,0.1-1.7,0-2.5c0-1.3,0.2-2.5,0.8-3.6C159.6,14.9,159.8,13.9,159.8,12.9"/>
</g>
</svg>
